<?xml version="1.0" encoding="UTF-8" standalone="no"?>
<svg
   xmlns:dc="http://purl.org/dc/elements/1.1/"
   xmlns:cc="http://creativecommons.org/ns#"
   xmlns:rdf="http://www.w3.org/1999/02/22-rdf-syntax-ns#"
   xmlns:svg="http://www.w3.org/2000/svg"
   xmlns="http://www.w3.org/2000/svg"
   xmlns:sodipodi="http://sodipodi.sourceforge.net/DTD/sodipodi-0.dtd"
   xmlns:inkscape="http://www.inkscape.org/namespaces/inkscape"
   inkscape:version="1.0 (4035a4fb49, 2020-05-01)"
   sodipodi:docname="account.svg"
   xml:space="preserve"
   style="enable-background:new 0 0 50 50;"
   viewBox="0 0 50 50"
   y="0px"
   x="0px"
   id="Layer_1"
   version="1.1"><metadata
   id="metadata14"><rdf:RDF><cc:Work
       rdf:about=""><dc:format>image/svg+xml</dc:format><dc:type
         rdf:resource="http://purl.org/dc/dcmitype/StillImage" /></cc:Work></rdf:RDF></metadata><defs
   id="defs12" /><sodipodi:namedview
   inkscape:current-layer="Layer_1"
   inkscape:window-maximized="0"
   inkscape:window-y="0"
   inkscape:window-x="0"
   inkscape:cy="25"
   inkscape:cx="25"
   inkscape:zoom="17"
   showgrid="false"
   id="namedview10"
   inkscape:window-height="480"
   inkscape:window-width="1411"
   inkscape:pageshadow="2"
   inkscape:pageopacity="0"
   guidetolerance="10"
   gridtolerance="10"
   objecttolerance="10"
   borderopacity="1"
   bordercolor="#666666"
   pagecolor="#ffffff" />
<g
   style="fill:#ffffff"
   id="_x33_amsvz_1_">
	<g
   style="fill:#ffffff"
   id="g6">
		<path
   style="fill:#ffffff"
   id="path2"
   d="M25.6,46.5c-3.8,0.1-7.4-0.5-11-1.7c-1.4-0.5-2.7-1.2-3.8-2.2c-2-1.8-2.3-4.1-1.7-6.5c1.1-4.2,3.6-7.4,7.1-9.8    c2.6-1.8,5.5-2.7,8.6-2.9c2.8-0.2,5.4,0.5,7.9,1.6c3.8,1.8,6.6,4.6,8.4,8.4c0.2,0.5,0.4,1.1,0.2,1.5c-0.1,0.4-0.6,0.8-1.1,0.9    c-0.6,0.2-1.1,0-1.4-0.6c-0.5-0.9-0.9-1.8-1.5-2.5c-3.2-4.4-7.5-6.8-13-6.4c-4,0.3-7.3,2.3-9.8,5.4c-1.3,1.7-2.3,3.5-2.7,5.6    c-0.3,1.4,0.1,2.6,1.4,3.4c2.1,1.5,4.5,2,6.9,2.4c3,0.5,6,0.5,9.1,0.2c2.9-0.3,5.8-0.7,8.4-2.2c0.7-0.4,1.3-1.1,1.8-1.8    c0.6-0.7,1.4-1,2-0.7c0.7,0.4,0.9,1.2,0.5,2.1c-0.7,1.5-2,2.5-3.5,3.2c-2.4,1.3-5.1,1.8-7.7,2.1C28.9,46.4,27.2,46.4,25.6,46.5z" />
		<path
   style="fill:#ffffff"
   id="path4"
   d="M25.6,20.9c-4.8,0-8.9-4-8.8-8.9c0.1-4.8,3.5-8.8,8.8-8.9c4.8,0,8.8,3.6,8.9,8.9C34.5,16.9,30.4,20.9,25.6,20.9z     M19.6,12.1c0,3.2,2.8,6,6,6c3.2,0,5.9-2.7,5.9-6c0-3.2-2.7-6-6-6C22.3,6.1,19.6,8.8,19.6,12.1z" />
	</g>
</g>
</svg>
