<?xml version="1.0" encoding="utf-8"?>
<!-- Generator: Adobe Illustrator 24.0.1, SVG Export Plug-In . SVG Version: 6.00 Build 0)  -->
<svg version="1.1" id="Layer_1" xmlns="http://www.w3.org/2000/svg" xmlns:xlink="http://www.w3.org/1999/xlink" x="0px" y="0px"
	 viewBox="0 0 50 50" style="enable-background:new 0 0 50 50;" xml:space="preserve">
<g id="_x33_amsvz_1_">
	<g>
		<path d="M25.6,46.5c-3.8,0.1-7.4-0.5-11-1.7c-1.4-0.5-2.7-1.2-3.8-2.2c-2-1.8-2.3-4.1-1.7-6.5c1.1-4.2,3.6-7.4,7.1-9.8
			c2.6-1.8,5.5-2.7,8.6-2.9c2.8-0.2,5.4,0.5,7.9,1.6c3.8,1.8,6.6,4.6,8.4,8.4c0.2,0.5,0.4,1.1,0.2,1.5c-0.1,0.4-0.6,0.8-1.1,0.9
			c-0.6,0.2-1.1,0-1.4-0.6c-0.5-0.9-0.9-1.8-1.5-2.5c-3.2-4.4-7.5-6.8-13-6.4c-4,0.3-7.3,2.3-9.8,5.4c-1.3,1.7-2.3,3.5-2.7,5.6
			c-0.3,1.4,0.1,2.6,1.4,3.4c2.1,1.5,4.5,2,6.9,2.4c3,0.5,6,0.5,9.1,0.2c2.9-0.3,5.8-0.7,8.4-2.2c0.7-0.4,1.3-1.1,1.8-1.8
			c0.6-0.7,1.4-1,2-0.7c0.7,0.4,0.9,1.2,0.5,2.1c-0.7,1.5-2,2.5-3.5,3.2c-2.4,1.3-5.1,1.8-7.7,2.1C28.9,46.4,27.2,46.4,25.6,46.5z"
			/>
		<path d="M25.6,20.9c-4.8,0-8.9-4-8.8-8.9c0.1-4.8,3.5-8.8,8.8-8.9c4.8,0,8.8,3.6,8.9,8.9C34.5,16.9,30.4,20.9,25.6,20.9z
			 M19.6,12.1c0,3.2,2.8,6,6,6c3.2,0,5.9-2.7,5.9-6c0-3.2-2.7-6-6-6C22.3,6.1,19.6,8.8,19.6,12.1z"/>
	</g>
</g>
</svg>
