<?xml version="1.0" encoding="UTF-8" standalone="no"?>
<svg
   xmlns:dc="http://purl.org/dc/elements/1.1/"
   xmlns:cc="http://creativecommons.org/ns#"
   xmlns:rdf="http://www.w3.org/1999/02/22-rdf-syntax-ns#"
   xmlns:svg="http://www.w3.org/2000/svg"
   xmlns="http://www.w3.org/2000/svg"
   xmlns:sodipodi="http://sodipodi.sourceforge.net/DTD/sodipodi-0.dtd"
   xmlns:inkscape="http://www.inkscape.org/namespaces/inkscape"
   version="1.1"
   id="Layer_1"
   x="0px"
   y="0px"
   viewBox="0 0 50 50"
   style="enable-background:new 0 0 50 50;"
   xml:space="preserve"
   sodipodi:docname="calendar.svg"
   inkscape:version="1.0 (4035a4fb49, 2020-05-01)"><metadata
   id="metadata14"><rdf:RDF><cc:Work
       rdf:about=""><dc:format>image/svg+xml</dc:format><dc:type
         rdf:resource="http://purl.org/dc/dcmitype/StillImage" /></cc:Work></rdf:RDF></metadata><defs
   id="defs12" /><sodipodi:namedview
   inkscape:document-rotation="0"
   pagecolor="#ffffff"
   bordercolor="#666666"
   borderopacity="1"
   objecttolerance="10"
   gridtolerance="10"
   guidetolerance="10"
   inkscape:pageopacity="0"
   inkscape:pageshadow="2"
   inkscape:window-width="1465"
   inkscape:window-height="480"
   id="namedview10"
   showgrid="false"
   inkscape:zoom="17"
   inkscape:cx="25"
   inkscape:cy="25"
   inkscape:window-x="0"
   inkscape:window-y="0"
   inkscape:window-maximized="0"
   inkscape:current-layer="Layer_1" />
<g
   id="_x37_cDZef_1_"
   style="fill:#ffffff">
	<g
   id="g6"
   style="fill:#ffffff">
		<path
   d="m 36.4,11.5 c 0.8,0 1.4,0 2.1,0 3.2,0.1 5.3,2 5.4,5.3 0.1,1.8 0,3.7 0,5.5 0,1.4 -0.6,1.9 -1.9,2 -0.3,0 -0.7,0 -1,0 -8,0 -16,0 -23.9,0 -0.5,0 -0.9,0 -1.4,-0.1 -0.9,-0.1 -1.4,-0.7 -1.4,-1.6 0,-0.9 0.4,-1.5 1.3,-1.7 0.4,-0.1 0.8,-0.1 1.3,-0.1 7.4,0 14.8,0 22.3,0 0.4,0 0.8,0 1.3,0 0,-1.5 0.1,-3 0,-4.5 -0.1,-0.9 -0.9,-1.4 -1.9,-1.4 -2.2,0 -4.3,0 -6.5,0 -6.5,0 -12.9,0 -19.4,0 -1.8,0 -2.4,0.6 -2.4,2.4 0,7.5 0,15.1 0,22.6 0,1.9 0.6,2.5 2.5,2.5 8.4,0 16.9,0 25.3,0 1.9,0 2.5,-0.6 2.5,-2.5 0,-3 0,-6 0,-9.1 0,-0.4 0,-0.8 0.1,-1.2 0.2,-0.8 0.8,-1.3 1.7,-1.3 0.9,0 1.5,0.5 1.6,1.4 0.1,0.9 0.1,1.8 0.1,2.8 0,2.8 0.1,5.5 -0.1,8.3 -0.1,2.9 -2.2,4.9 -5.2,4.9 -2.4,0 -4.8,0 -7.2,0 -6.5,0 -12.9,0 -19.4,0 C 9.6,45.7 7.6,44.3 7,41.9 6.8,41.3 6.8,40.7 6.8,40 c 0,-7.7 0,-15.4 0,-23 0,-3.6 2.1,-5.6 5.7,-5.7 0.6,0 1.2,0 1.8,0 0,-2 0,-3.8 0,-5.7 0,-1.2 0.7,-1.9 1.7,-1.9 1.1,0 1.8,0.7 1.8,1.9 0,1.5 0,3.1 0,4.6 0,0.3 0,0.6 0,1 5.1,0 10.1,0 15.2,0 0,-1.9 0,-3.8 0,-5.6 0,-1.1 0.6,-1.8 1.6,-1.9 1.1,-0.1 1.9,0.7 1.9,1.9 0,1.5 0,3.1 0,4.6 -0.1,0.5 -0.1,0.9 -0.1,1.3 z"
   id="path2"
   style="fill:#ffffff" />
		<path
   d="m 14.3,32.7 c 0,-0.8 0,-1.6 0,-2.5 0,-1.1 0.8,-1.8 1.8,-1.8 1,0 1.7,0.7 1.7,1.8 0,1.7 0,3.4 0,5.1 0,1.1 -0.8,1.9 -1.8,1.8 -1,0 -1.7,-0.8 -1.7,-1.9 -0.1,-0.8 0,-1.6 0,-2.5 z"
   id="path4"
   style="fill:#ffffff" />
	</g>
</g>
</svg>
