<?xml version="1.0" encoding="utf-8"?>
<!-- Generator: Adobe Illustrator 24.0.1, SVG Export Plug-In . SVG Version: 6.00 Build 0)  -->
<svg version="1.1" id="Layer_1" xmlns="http://www.w3.org/2000/svg" xmlns:xlink="http://www.w3.org/1999/xlink" x="0px" y="0px"
	 viewBox="0 0 50 50" style="enable-background:new 0 0 50 50;" xml:space="preserve">
<g id="_x37_cDZef_1_">
	<g>
		<path d="M36.4,11.5c0.8,0,1.4,0,2.1,0c3.2,0.1,5.3,2,5.4,5.3c0.1,1.8,0,3.7,0,5.5c0,1.4-0.6,1.9-1.9,2c-0.3,0-0.7,0-1,0
			c-8,0-16,0-23.9,0c-0.5,0-0.9,0-1.4-0.1c-0.9-0.1-1.4-0.7-1.4-1.6c0-0.9,0.4-1.5,1.3-1.7c0.4-0.1,0.8-0.1,1.3-0.1
			c7.4,0,14.8,0,22.3,0c0.4,0,0.8,0,1.3,0c0-1.5,0.1-3,0-4.5c-0.1-0.9-0.9-1.4-1.9-1.4c-2.2,0-4.3,0-6.5,0c-6.5,0-12.9,0-19.4,0
			c-1.8,0-2.4,0.6-2.4,2.4c0,7.5,0,15.1,0,22.6c0,1.9,0.6,2.5,2.5,2.5c8.4,0,16.9,0,25.3,0c1.9,0,2.5-0.6,2.5-2.5c0-3,0-6,0-9.1
			c0-0.4,0-0.8,0.1-1.2c0.2-0.8,0.8-1.3,1.7-1.3c0.9,0,1.5,0.5,1.6,1.4c0.1,0.9,0.1,1.8,0.1,2.8c0,2.8,0.1,5.5-0.1,8.3
			c-0.1,2.9-2.2,4.9-5.2,4.9c-2.4,0-4.8,0-7.2,0c-6.5,0-12.9,0-19.4,0c-2.6,0-4.6-1.4-5.2-3.8c-0.2-0.6-0.2-1.2-0.2-1.9
			c0-7.7,0-15.4,0-23c0-3.6,2.1-5.6,5.7-5.7c0.6,0,1.2,0,1.8,0c0-2,0-3.8,0-5.7c0-1.2,0.7-1.9,1.7-1.9c1.1,0,1.8,0.7,1.8,1.9
			c0,1.5,0,3.1,0,4.6c0,0.3,0,0.6,0,1c5.1,0,10.1,0,15.2,0c0-1.9,0-3.8,0-5.6c0-1.1,0.6-1.8,1.6-1.9c1.1-0.1,1.9,0.7,1.9,1.9
			c0,1.5,0,3.1,0,4.6C36.4,10.7,36.4,11.1,36.4,11.5z"/>
		<path d="M14.3,32.7c0-0.8,0-1.6,0-2.5c0-1.1,0.8-1.8,1.8-1.8c1,0,1.7,0.7,1.7,1.8c0,1.7,0,3.4,0,5.1c0,1.1-0.8,1.9-1.8,1.8
			c-1,0-1.7-0.8-1.7-1.9C14.2,34.4,14.3,33.6,14.3,32.7z"/>
	</g>
</g>
</svg>
