<?xml version="1.0" encoding="utf-8"?>
<!-- Generator: Adobe Illustrator 24.0.1, SVG Export Plug-In . SVG Version: 6.00 Build 0)  -->
<svg version="1.1" id="Layer_1" xmlns="http://www.w3.org/2000/svg" xmlns:xlink="http://www.w3.org/1999/xlink" x="0px" y="0px"
	 viewBox="0 0 50 50" style="enable-background:new 0 0 50 50;" xml:space="preserve">
<g id="Z9opO4_1_">
	<g>
		<path d="M24.1,41.7c0.3,0.3,0.5,0.5,0.7,0.7c0.6,0.6,1,1.3,1.1,2.2c0.1,0.8-0.2,1.4-1.2,1.4c-3.5,0-6.9,0-10.4,0
			c-0.2,0-0.4,0-0.6,0c-0.8,0-1.1-0.4-1.1-1.2c0.1-1,0.5-1.8,1.2-2.4c0.2-0.2,0.4-0.3,0.6-0.5c-0.8-0.3-1.5-0.6-2.3-0.8
			c-2.4-0.9-4.5-2.3-6.2-4.3c-1.6-1.9-2.4-4.2-2.4-6.7c0-1,0-1.9,0-2.9c0-0.8,0.3-1.1,1.1-1.1c0.2,0,0.4,0,0.5,0c9.3,0,18.6,0,28,0
			c0.2,0,0.5,0,0.7,0c0.6,0,0.9,0.3,1,0.9c0,2.3,0.3,4.6-0.6,6.8c-1.1,2.6-2.9,4.6-5.3,6C27.6,40.5,25.9,41.2,24.1,41.7z M5.8,31.3
			c0,0.1,0,0.2,0,0.3c0,0.1,0,0.3,0.1,0.4c0.4,1.5,1.1,2.9,2.3,4c2.6,2.6,5.9,3.9,9.5,4.2c2.2,0.2,4.4,0.1,6.5-0.5
			c2.7-0.8,5-2,6.9-4.1c1.1-1.2,1.7-2.6,2-4.2C32.4,31.1,6.7,31.1,5.8,31.3z M5.7,29.3c9.1,0,18.2,0,27.3,0c0-0.5,0-1,0-1.4
			c-9.1,0-18.2,0-27.3,0C5.7,28.3,5.7,28.8,5.7,29.3z M23.6,44.1c0-0.1,0-0.1,0.1-0.2c-1.4-1.5-3.2-1.7-5.1-1.6
			c-1.4,0.1-2.6,0.5-3.6,1.7C17.9,44.1,20.8,44.1,23.6,44.1z"/>
		<path d="M34.5,13c-0.5,0.3-1.1,0.6-1.6,0.9c-0.7,2.9-2.1,5.3-3.9,7.5c-0.6,0.8-1.4,1.4-2.1,2.1c-0.3,0.3-0.7,0.5-1.1,0.7
			c-2.2,1.1-4,0.2-5.1-1.6c-0.9-1.5-1.7-3-2.5-4.6c-0.7-1.4-0.9-2.9,0.2-4.3c0.5-0.7,1.3-1.1,2.1-1.5c1.3-0.5,2.7-0.8,4.1-0.9
			c2.5-0.1,5-0.1,7.4,0.8c0.5-0.3,1.1-0.6,1.6-0.9c0-0.1,0.1-0.2,0.1-0.3c0-1.1,0.5-1.9,1.5-2.4c1.3-0.7,2.5-1.4,3.8-2.1
			c1.3-0.7,2.6-1.4,3.8-2.1c0.5-0.2,1-0.5,1.5-0.5c1.3-0.1,2.3,0.6,2.7,1.8c0.3,1.1-0.1,2.3-1.2,2.9c-1,0.6-2,1.1-3,1.7
			c-1.6,0.9-3.2,1.7-4.8,2.6c-1.1,0.6-2.1,0.8-3.2,0.1C34.7,13,34.6,13,34.5,13z M36.2,11.7c0.4-0.2,0.7-0.3,0.9-0.4
			c2.5-1.3,4.9-2.7,7.4-4c0.2-0.1,0.3-0.2,0.4-0.3c0.2-0.2,0.3-0.5,0.1-0.8c-0.2-0.3-0.5-0.4-0.8-0.3C44,5.9,43.8,6,43.6,6.1
			c-2.3,1.2-4.5,2.5-6.8,3.7c-0.3,0.2-0.7,0.4-1,0.6c-0.3,0.2-0.4,0.5-0.3,0.8C35.7,11.4,36,11.5,36.2,11.7z M23,22.5
			c0.4,0.1,0.7,0.2,0.9,0.2c0.6,0,1.1-0.2,1.6-0.6c1.3-0.9,2.3-2.2,3.2-3.5c0.2-0.3,0.3-0.5,0.5-0.8C27.3,19.6,25.3,21.1,23,22.5z
			 M19.5,15.9c2.3-1.1,4.5-2,7-2.5c-0.2-0.1-0.3-0.1-0.3-0.1c-1.5,0.1-3,0.1-4.4,0.5c-0.6,0.2-1.1,0.5-1.7,0.8
			C19.7,14.8,19.5,15.2,19.5,15.9z M20.6,18.5c1.7-0.9,3.3-1.8,4.9-2.8c-1.9,0.4-3.6,1.1-5.3,2C20.3,18,20.4,18.2,20.6,18.5z
			 M26.6,17.6c0,0-0.1-0.1-0.1-0.1c-1.6,0.9-3.3,1.8-5,2.7c0.2,0.3,0.3,0.5,0.5,0.7C23.6,19.9,25.2,18.8,26.6,17.6z"/>
		<path d="M11.3,11.9c0,0.2,0,0.5-0.1,0.9c-0.3,1.6-1.2,2.6-2.9,2.9c-0.8,0.2-1.6,0.1-2.3-0.2c-1.1-0.3-1.8-1.1-2.1-2.2
			c-0.5-1.9-0.2-3.8,1-5.4c1.4-1.8,3.7-1.8,5.1,0C10.9,9,11.3,10.3,11.3,11.9z M9.4,11.7c0-0.9-0.2-1.7-0.7-2.5c-0.7-1-1.6-1-2.3,0
			c-0.8,1.1-1,2.4-0.6,3.7c0.1,0.3,0.4,0.7,0.7,0.8c1.6,0.7,2.8-0.1,2.9-1.8C9.4,11.8,9.4,11.8,9.4,11.7z"/>
		<path d="M8.3,20.2c0-1,0.2-2.1,0.8-3c0.2-0.3,0.4-0.6,0.6-0.9c1.3-1.5,3.5-1.6,4.7,0c1.4,1.7,1.8,3.8,1.1,5.9
			c-0.5,1.7-2.1,2.3-3.9,2.1C9.3,24.1,8.2,22.8,8.3,20.2z M10.2,20.2c0,1.6,0.4,2.2,1.7,2.2c1.1,0,1.6-0.2,1.8-1
			c0.4-1.3,0.2-2.6-0.6-3.7c-0.7-1-1.6-1-2.3,0.1C10.3,18.6,10.1,19.4,10.2,20.2z"/>
	</g>
</g>
</svg>
