<?xml version="1.0" encoding="utf-8"?>
<!-- Generator: Adobe Illustrator 24.0.1, SVG Export Plug-In . SVG Version: 6.00 Build 0)  -->
<svg version="1.1" id="Layer_1" xmlns="http://www.w3.org/2000/svg" xmlns:xlink="http://www.w3.org/1999/xlink" x="0px" y="0px"
	 viewBox="0 0 50 50" style="enable-background:new 0 0 50 50;" xml:space="preserve">
<g>
	<path d="M34.1,16H30c0.1-0.6,0.1-1.2,0.2-1.3c0.2-1.2,0.3-2.5,0.5-3.7c0.2-1.5,0.5-3.1,0.4-4.7c-0.3-2.8-2.9-4.9-5.6-4.9
		c-0.1,0-0.2,0-0.3,0c-3,0.2-5.3,2.6-5.4,5.6c0,1.2,0.2,2.3,0.3,3.5c0.1,0.9,0.2,1.9,0.3,2.8l0.3,2.6h-4.1c-2.1,0-3.9,1.7-3.9,3.9
		v4.9c0,0.7,0.6,1.3,1.3,1.3s1.3-0.6,1.3-1.3v-4.9c0-0.7,0.6-1.3,1.3-1.3h5.6c0.7,0,1.3-0.6,1.3-1.3c0-0.1,0-0.2,0-0.3
		c0,0,0-0.1,0-0.1c-0.3-2.8-0.7-5.6-1-8.4c-0.2-1.1-0.2-2.2,0.5-3.1c0.6-0.8,1.5-1.2,2.5-1.2c0.9,0,1.8,0.4,2.4,1.1
		c0.7,0.8,0.8,1.8,0.6,2.8c-0.2,1.3-0.3,2.5-0.5,3.8l-0.6,5c0,0,0,0.1,0,0.1c0,0.1,0,0.2,0,0.3c0,0.7,0.6,1.3,1.3,1.3h5.5
		c0.7,0,1.3,0.6,1.3,1.3v24.4c0,0.7-0.6,1.3-1.3,1.3H16.6c-0.7,0-1.3-0.6-1.3-1.3V30.4c0-0.7-0.6-1.3-1.3-1.3s-1.3,0.6-1.3,1.3v13.9
		c0,2.1,1.7,3.9,3.9,3.9h17.5c2.1,0,3.9-1.7,3.9-3.9V19.9C38,17.7,36.3,16,34.1,16z"/>
	<circle cx="25.3" cy="7.5" r="1.4"/>
</g>
</svg>
