<?xml version="1.0" encoding="utf-8"?>
<!-- Generator: Adobe Illustrator 24.0.1, SVG Export Plug-In . SVG Version: 6.00 Build 0)  -->
<svg version="1.1" id="Layer_1" xmlns="http://www.w3.org/2000/svg" xmlns:xlink="http://www.w3.org/1999/xlink" x="0px" y="0px"
	 viewBox="0 0 50 50" style="enable-background:new 0 0 50 50;" xml:space="preserve">
<g id="fnXePo_1_">
	<g>
		<path d="M39,23.4c0,5.8,0,11.7,0,17.5c0,1.1-0.2,2.2-1.2,2.9c-0.1,0.1-0.2,0.4-0.2,0.6c0,0.6,0,1.1,0,1.7c0,0.9-0.4,1.3-1.3,1.3
			c-1.5,0-3,0-4.5,0c-5.8,0-11.6,0-17.4,0c-0.2,0-0.5,0-0.7,0c-0.6-0.1-1-0.4-1.1-1.1c0-0.4,0-0.9,0-1.3c0-0.8,0-1.5-0.5-2.1
			c-0.3-0.4-0.4-1-0.4-1.6c-0.1-1.1,0-2.1,0-3.2c0-10.8,0-21.6,0-32.3c0-0.8,0-1.7,0.6-2.4c0.6-0.8,1.4-1.1,2.4-1.2c1,0,2,0,3,0
			c6,0,12,0,18,0c1,0,1.8,0.2,2.5,1c0.4,0.5,0.7,1,0.7,1.6c0,0.4,0,0.7,0,1.1C39,11.8,39,17.6,39,23.4z M25.4,20.9
			c-3.5,0-7.1,0-10.6,0c-0.7,0-0.7,0-0.7,0.7c0,6.5,0,13,0,19.5c0,0.9,0.2,1.1,1.1,1.1c6.8,0,13.6,0,20.5,0c0.9,0,1.1-0.2,1.1-1.1
			c0-6.5,0-13,0-19.4c0-0.8,0-0.8-0.8-0.8C32.4,20.9,28.9,20.9,25.4,20.9z M25.3,18.6c3.5,0,7,0,10.5,0c0.8,0,0.8,0,0.8-0.8
			c0-4,0-8,0-12.1c0-1-0.1-1.1-1.1-1.1c-6.8,0-13.6,0-20.5,0c-1,0-1.1,0.1-1.1,1.1c0,4,0,8,0,12.1c0,0.8,0,0.8,0.8,0.8
			C18.4,18.6,21.8,18.6,25.3,18.6z M25.2,45.1c3.1,0,6.2,0,9.3,0c0.3,0,0.8,0.3,0.8-0.3c0-0.5-0.5-0.3-0.8-0.3c-6.3,0-12.5,0-18.8,0
			c-0.3,0-0.8-0.2-0.8,0.3c0,0.5,0.5,0.3,0.8,0.3C18.9,45.1,22.1,45.1,25.2,45.1z"/>
		<path d="M18.5,31.6c0,2.3,0,4.5,0,6.8c0,0.3,0,0.7-0.1,1c-0.2,0.5-0.6,0.7-1,0.7c-0.4,0-0.8-0.2-1-0.7c-0.1-0.3-0.1-0.5-0.1-0.8
			c0-4.6,0-9.2,0-13.8c0-1.2,0.9-1.8,1.7-1.3c0.5,0.3,0.6,0.8,0.6,1.3c0,1.8,0,3.5,0,5.3C18.5,30.5,18.5,31,18.5,31.6z"/>
		<path d="M18.5,11.7c0,1.1,0,2.1,0,3.2c0,0.3-0.1,0.7-0.2,0.9c-0.2,0.4-0.6,0.6-1,0.5c-0.3-0.1-0.7-0.3-0.9-0.6
			c-0.2-0.3-0.2-0.7-0.2-1c0-2.1,0-4.2,0-6.3c0-0.3,0-0.7,0.1-1c0.2-0.5,0.5-0.7,1-0.7c0.5,0,0.8,0.2,1,0.7c0.1,0.3,0.1,0.5,0.1,0.8
			C18.5,9.4,18.5,10.5,18.5,11.7z"/>
	</g>
</g>
</svg>
