<?xml version="1.0" encoding="UTF-8" standalone="no"?>
<svg
   xmlns:dc="http://purl.org/dc/elements/1.1/"
   xmlns:cc="http://creativecommons.org/ns#"
   xmlns:rdf="http://www.w3.org/1999/02/22-rdf-syntax-ns#"
   xmlns:svg="http://www.w3.org/2000/svg"
   xmlns="http://www.w3.org/2000/svg"
   xmlns:sodipodi="http://sodipodi.sourceforge.net/DTD/sodipodi-0.dtd"
   xmlns:inkscape="http://www.inkscape.org/namespaces/inkscape"
   inkscape:version="1.0 (4035a4fb49, 2020-05-01)"
   sodipodi:docname="history.svg"
   xml:space="preserve"
   style="enable-background:new 0 0 50 50;"
   viewBox="0 0 50 50"
   y="0px"
   x="0px"
   id="Layer_1"
   version="1.1"><metadata
   id="metadata23"><rdf:RDF><cc:Work
       rdf:about=""><dc:format>image/svg+xml</dc:format><dc:type
         rdf:resource="http://purl.org/dc/dcmitype/StillImage" /></cc:Work></rdf:RDF></metadata><defs
   id="defs21" /><sodipodi:namedview
   inkscape:current-layer="Layer_1"
   inkscape:window-maximized="0"
   inkscape:window-y="0"
   inkscape:window-x="0"
   inkscape:cy="25"
   inkscape:cx="25"
   inkscape:zoom="17"
   showgrid="false"
   id="namedview19"
   inkscape:window-height="480"
   inkscape:window-width="820"
   inkscape:pageshadow="2"
   inkscape:pageopacity="0"
   guidetolerance="10"
   gridtolerance="10"
   objecttolerance="10"
   borderopacity="1"
   bordercolor="#666666"
   pagecolor="#ffffff" />
<g
   style="fill:#ffffff"
   id="g16">
	<path
   style="fill:#ffffff"
   id="path2"
   d="M45.2,23.7c-0.3-0.3-0.7-0.5-1.1-0.5c-0.9,0-1.6,0.8-1.6,1.8c-0.1,4.5-1.7,8.4-4.8,11.6c-3.3,3.5-7.5,5.2-12.3,5.2   c0,0,0,0,0,0c-4.6,0-8.6-1.6-11.7-4.8c-4.9-5-6.4-10.8-4.4-17.4c2.1-7,8.6-11.8,16-11.9c0.6,0,1.1-0.2,1.4-0.6   C26.9,7,27,6.6,27,6.2c0-1-0.8-1.6-1.9-1.6c-2.5,0.1-5,0.6-7.4,1.5C10.2,9,5,16.6,5.1,24.7c0,4.4,1.3,8.6,3.7,11.9   c3.1,4.4,7.4,7.1,12.7,8.2c1.3,0.3,2.6,0.4,4,0.4c1.8,0,3.5-0.2,5.3-0.7c3.2-0.9,5.9-2.3,8.2-4.4c4.4-4,6.7-9,6.9-15   C45.7,24.5,45.5,24,45.2,23.7z" />
	<path
   style="fill:#ffffff"
   id="path4"
   d="M27,16.2l0-2.1l0-0.5c0-0.4,0-0.8,0-1.2c0-0.6-0.3-1.1-0.7-1.3c-0.4-0.3-0.9-0.3-1.4-0.2c-0.4,0.1-1.2,0.5-1.2,1.8   c0,1.4,0,2.8,0,4.3l0,3.4c0,1.4,0,2.8,0,4.2c0,0.8,0.3,1.4,1,1.8c1,0.7,2,1.3,3,2c1.4,0.9,2.8,1.8,4.2,2.8c0.3,0.2,0.7,0.3,1.1,0.3   c0.1,0,0.1,0,0.2,0c0.7-0.1,1.2-0.6,1.3-1.3c0.1-0.5,0-1.2-0.8-1.7c-0.8-0.5-1.6-1.1-2.4-1.6c-1.3-0.9-2.6-1.7-3.9-2.6   c-0.2-0.2-0.3-0.3-0.3-0.6C27,21.1,27,18.7,27,16.2z" />
	<path
   style="fill:#ffffff"
   id="path6"
   d="M30.2,8.4C30.2,8.4,30.2,8.4,30.2,8.4c0.5,0,0.9-0.2,1.2-0.5c0.3-0.3,0.5-0.7,0.4-1.1c0-0.9-0.8-1.6-1.6-1.6   c-0.4,0-0.9,0.2-1.2,0.5c-0.3,0.3-0.4,0.7-0.4,1.1C28.6,7.7,29.4,8.4,30.2,8.4z" />
	<path
   style="fill:#ffffff"
   id="path8"
   d="M41.8,20.1c0,0.4,0.2,0.8,0.5,1.1c0.3,0.3,0.7,0.4,1.1,0.4c0,0,0,0,0,0c0.9,0,1.6-0.8,1.6-1.7c0-0.4-0.2-0.8-0.5-1.1   c-0.3-0.3-0.7-0.4-1.1-0.4C42.5,18.5,41.8,19.2,41.8,20.1z" />
	<path
   style="fill:#ffffff"
   id="path10"
   d="M38.5,13.3C38.5,13.3,38.6,13.3,38.5,13.3c0.9,0,1.6-0.7,1.7-1.5c0-0.4-0.1-0.8-0.4-1.2c-0.3-0.3-0.7-0.5-1.1-0.5   c-0.5,0-0.9,0.1-1.2,0.4c-0.3,0.3-0.5,0.7-0.5,1.1C37,12.5,37.6,13.2,38.5,13.3z" />
	<path
   style="fill:#ffffff"
   id="path12"
   d="M40.4,16.7c0.3,0.3,0.7,0.5,1.1,0.5c0,0,0,0,0,0c0.9,0,1.6-0.7,1.6-1.6c0-0.4-0.2-0.8-0.5-1.1c-0.6-0.6-1.7-0.6-2.3,0   c-0.3,0.3-0.5,0.7-0.5,1.1C39.9,16,40.1,16.4,40.4,16.7z" />
	<path
   style="fill:#ffffff"
   id="path14"
   d="M34.7,10.3C34.7,10.3,34.7,10.3,34.7,10.3c0.4,0,0.8-0.2,1.1-0.5c0.3-0.3,0.5-0.7,0.5-1.2c0-0.4-0.2-0.8-0.5-1.1   c-0.3-0.3-0.7-0.4-1.1-0.4c-0.9,0-1.6,0.7-1.6,1.6c0,0.4,0.2,0.8,0.5,1.1C33.9,10.1,34.3,10.3,34.7,10.3z" />
</g>
</svg>
