<?xml version="1.0" encoding="utf-8"?>
<!-- Generator: Adobe Illustrator 24.0.1, SVG Export Plug-In . SVG Version: 6.00 Build 0)  -->
<svg version="1.1" id="Layer_1" xmlns="http://www.w3.org/2000/svg" xmlns:xlink="http://www.w3.org/1999/xlink" x="0px" y="0px"
	 viewBox="0 0 50 50" style="enable-background:new 0 0 50 50;" xml:space="preserve">
<g>
	<path d="M45.2,23.7c-0.3-0.3-0.7-0.5-1.1-0.5c-0.9,0-1.6,0.8-1.6,1.8c-0.1,4.5-1.7,8.4-4.8,11.6c-3.3,3.5-7.5,5.2-12.3,5.2
		c0,0,0,0,0,0c-4.6,0-8.6-1.6-11.7-4.8c-4.9-5-6.4-10.8-4.4-17.4c2.1-7,8.6-11.8,16-11.9c0.6,0,1.1-0.2,1.4-0.6
		C26.9,7,27,6.6,27,6.2c0-1-0.8-1.6-1.9-1.6c-2.5,0.1-5,0.6-7.4,1.5C10.2,9,5,16.6,5.1,24.7c0,4.4,1.3,8.6,3.7,11.9
		c3.1,4.4,7.4,7.1,12.7,8.2c1.3,0.3,2.6,0.4,4,0.4c1.8,0,3.5-0.2,5.3-0.7c3.2-0.9,5.9-2.3,8.2-4.4c4.4-4,6.7-9,6.9-15
		C45.7,24.5,45.5,24,45.2,23.7z"/>
	<path d="M27,16.2l0-2.1l0-0.5c0-0.4,0-0.8,0-1.2c0-0.6-0.3-1.1-0.7-1.3c-0.4-0.3-0.9-0.3-1.4-0.2c-0.4,0.1-1.2,0.5-1.2,1.8
		c0,1.4,0,2.8,0,4.3l0,3.4c0,1.4,0,2.8,0,4.2c0,0.8,0.3,1.4,1,1.8c1,0.7,2,1.3,3,2c1.4,0.9,2.8,1.8,4.2,2.8c0.3,0.2,0.7,0.3,1.1,0.3
		c0.1,0,0.1,0,0.2,0c0.7-0.1,1.2-0.6,1.3-1.3c0.1-0.5,0-1.2-0.8-1.7c-0.8-0.5-1.6-1.1-2.4-1.6c-1.3-0.9-2.6-1.7-3.9-2.6
		c-0.2-0.2-0.3-0.3-0.3-0.6C27,21.1,27,18.7,27,16.2z"/>
	<path d="M30.2,8.4C30.2,8.4,30.2,8.4,30.2,8.4c0.5,0,0.9-0.2,1.2-0.5c0.3-0.3,0.5-0.7,0.4-1.1c0-0.9-0.8-1.6-1.6-1.6
		c-0.4,0-0.9,0.2-1.2,0.5c-0.3,0.3-0.4,0.7-0.4,1.1C28.6,7.7,29.4,8.4,30.2,8.4z"/>
	<path d="M41.8,20.1c0,0.4,0.2,0.8,0.5,1.1c0.3,0.3,0.7,0.4,1.1,0.4c0,0,0,0,0,0c0.9,0,1.6-0.8,1.6-1.7c0-0.4-0.2-0.8-0.5-1.1
		c-0.3-0.3-0.7-0.4-1.1-0.4C42.5,18.5,41.8,19.2,41.8,20.1z"/>
	<path d="M38.5,13.3C38.5,13.3,38.6,13.3,38.5,13.3c0.9,0,1.6-0.7,1.7-1.5c0-0.4-0.1-0.8-0.4-1.2c-0.3-0.3-0.7-0.5-1.1-0.5
		c-0.5,0-0.9,0.1-1.2,0.4c-0.3,0.3-0.5,0.7-0.5,1.1C37,12.5,37.6,13.2,38.5,13.3z"/>
	<path d="M40.4,16.7c0.3,0.3,0.7,0.5,1.1,0.5c0,0,0,0,0,0c0.9,0,1.6-0.7,1.6-1.6c0-0.4-0.2-0.8-0.5-1.1c-0.6-0.6-1.7-0.6-2.3,0
		c-0.3,0.3-0.5,0.7-0.5,1.1C39.9,16,40.1,16.4,40.4,16.7z"/>
	<path d="M34.7,10.3C34.7,10.3,34.7,10.3,34.7,10.3c0.4,0,0.8-0.2,1.1-0.5c0.3-0.3,0.5-0.7,0.5-1.2c0-0.4-0.2-0.8-0.5-1.1
		c-0.3-0.3-0.7-0.4-1.1-0.4c-0.9,0-1.6,0.7-1.6,1.6c0,0.4,0.2,0.8,0.5,1.1C33.9,10.1,34.3,10.3,34.7,10.3z"/>
</g>
</svg>
