<?xml version="1.0" encoding="utf-8"?>
<!-- Generator: Adobe Illustrator 24.0.1, SVG Export Plug-In . SVG Version: 6.00 Build 0)  -->
<svg version="1.1" id="Layer_1" xmlns="http://www.w3.org/2000/svg" xmlns:xlink="http://www.w3.org/1999/xlink" x="0px" y="0px"
	 viewBox="0 0 50 50" style="enable-background:new 0 0 50 50;" xml:space="preserve">
<g id="_x30_Z9Ynx_1_">
	<g>
		<path d="M42.8,22.4c0,0.5,0,0.9,0,1.2c0,5.5,0,10.9,0,16.4c0,2.6-1,4.6-3.3,5.7c-0.8,0.4-1.8,0.6-2.7,0.6c-7.7,0-15.3,0-23,0
			c-3.6,0-6-2.5-6-6.2c0-5.6,0-11.1,0-16.7c0-0.3,0-0.6,0-1.1c-1,0.8-1.8,1.5-2.6,2.1c-1.4,1-3,0.3-3.2-1.3C2,22.4,2.4,21.8,3,21.4
			c3.4-2.8,6.9-5.6,10.3-8.4c3.5-2.8,6.9-5.7,10.4-8.5c1.3-1.1,2.1-1.1,3.4,0c6.8,5.6,13.7,11.2,20.5,16.8c0.6,0.5,1.1,1,1,1.8
			c0,0.7-0.3,1.3-1,1.6c-0.7,0.3-1.4,0.3-2.1-0.2C44.7,23.9,43.8,23.2,42.8,22.4z M25.3,8.1c-4.5,3.6-8.9,7.2-13.2,10.9
			c-0.2,0.2-0.4,0.6-0.4,0.9c0,3,0,6,0,9.1c0,3.7,0,7.5,0,11.2c0,1.2,0.5,2.1,1.4,2.2c1.5,0.1,3,0,4.5,0c0-3.1,0-6.2,0-9.3
			c0-2.9,1.6-5.4,4.4-5.8c2.2-0.4,4.5-0.4,6.7,0c2.7,0.4,4.4,2.9,4.4,5.8c0,2.9,0,5.7,0,8.6c0,0.3,0,0.6,0,0.9c1.4,0,2.7,0.1,4,0
			c1.2-0.1,1.9-0.9,1.9-2.2c0-6.9,0-13.7,0-20.6c0-0.3-0.2-0.6-0.4-0.7C34.2,15.3,29.8,11.7,25.3,8.1z M29.1,42.4
			c0-0.1,0.1-0.2,0.1-0.3c0-3.1,0-6.3,0-9.4c0-1.2-0.8-1.9-2-2c-1.1,0-2.2,0-3.3,0c-1.7,0-2.4,0.7-2.4,2.4c0,2.3,0,4.5,0,6.8
			c0,0.8,0,1.6,0,2.5C24.1,42.4,26.6,42.4,29.1,42.4z"/>
	</g>
</g>
</svg>
