<?xml version="1.0" encoding="UTF-8" standalone="no"?>
<svg
   xmlns:dc="http://purl.org/dc/elements/1.1/"
   xmlns:cc="http://creativecommons.org/ns#"
   xmlns:rdf="http://www.w3.org/1999/02/22-rdf-syntax-ns#"
   xmlns:svg="http://www.w3.org/2000/svg"
   xmlns="http://www.w3.org/2000/svg"
   xmlns:sodipodi="http://sodipodi.sourceforge.net/DTD/sodipodi-0.dtd"
   xmlns:inkscape="http://www.inkscape.org/namespaces/inkscape"
   inkscape:version="1.0 (4035a4fb49, 2020-05-01)"
   sodipodi:docname="home.svg"
   xml:space="preserve"
   style="enable-background:new 0 0 50 50;"
   viewBox="0 0 50 50"
   y="0px"
   x="0px"
   id="Layer_1"
   version="1.1"><metadata
   id="metadata12"><rdf:RDF><cc:Work
       rdf:about=""><dc:format>image/svg+xml</dc:format><dc:type
         rdf:resource="http://purl.org/dc/dcmitype/StillImage" /></cc:Work></rdf:RDF></metadata><defs
   id="defs10" /><sodipodi:namedview
   inkscape:current-layer="Layer_1"
   inkscape:window-maximized="0"
   inkscape:window-y="0"
   inkscape:window-x="0"
   inkscape:cy="20.764706"
   inkscape:cx="23.823529"
   inkscape:zoom="8.5"
   showgrid="false"
   id="namedview8"
   inkscape:window-height="903"
   inkscape:window-width="1873"
   inkscape:pageshadow="2"
   inkscape:pageopacity="0"
   guidetolerance="10"
   gridtolerance="10"
   objecttolerance="10"
   borderopacity="1"
   bordercolor="#666666"
   pagecolor="#ffffff" />
<circle
   r="24.529411"
   cy="25.117647"
   cx="25"
   id="path839"
   style="fill:#de9400;fill-opacity:1;stroke-width:0.207699" /><g
   style="fill:#ffffff"
   transform="matrix(0.68185465,0,0,0.68185465,8.0659116,6.7301294)"
   id="_x30_Z9Ynx_1_">
	<g
   style="fill:#ffffff"
   id="g4">
		<path
   style="fill:#ffffff"
   id="path2"
   d="m 42.8,22.4 c 0,0.5 0,0.9 0,1.2 0,5.5 0,10.9 0,16.4 0,2.6 -1,4.6 -3.3,5.7 -0.8,0.4 -1.8,0.6 -2.7,0.6 -7.7,0 -15.3,0 -23,0 -3.6,0 -6,-2.5 -6,-6.2 0,-5.6 0,-11.1 0,-16.7 0,-0.3 0,-0.6 0,-1.1 -1,0.8 -1.8,1.5 -2.6,2.1 -1.4,1 -3,0.3 -3.2,-1.3 0,-0.7 0.4,-1.3 1,-1.7 3.4,-2.8 6.9,-5.6 10.3,-8.4 3.5,-2.8 6.9,-5.7 10.4,-8.5 1.3,-1.1 2.1,-1.1 3.4,0 6.8,5.6 13.7,11.2 20.5,16.8 0.6,0.5 1.1,1 1,1.8 0,0.7 -0.3,1.3 -1,1.6 C 46.9,25 46.2,25 45.5,24.5 44.7,23.9 43.8,23.2 42.8,22.4 Z M 25.3,8.1 c -4.5,3.6 -8.9,7.2 -13.2,10.9 -0.2,0.2 -0.4,0.6 -0.4,0.9 0,3 0,6 0,9.1 0,3.7 0,7.5 0,11.2 0,1.2 0.5,2.1 1.4,2.2 1.5,0.1 3,0 4.5,0 0,-3.1 0,-6.2 0,-9.3 0,-2.9 1.6,-5.4 4.4,-5.8 2.2,-0.4 4.5,-0.4 6.7,0 2.7,0.4 4.4,2.9 4.4,5.8 0,2.9 0,5.7 0,8.6 0,0.3 0,0.6 0,0.9 1.4,0 2.7,0.1 4,0 1.2,-0.1 1.9,-0.9 1.9,-2.2 0,-6.9 0,-13.7 0,-20.6 0,-0.3 -0.2,-0.6 -0.4,-0.7 -4.4,-3.8 -8.8,-7.4 -13.3,-11 z m 3.8,34.3 c 0,-0.1 0.1,-0.2 0.1,-0.3 0,-3.1 0,-6.3 0,-9.4 0,-1.2 -0.8,-1.9 -2,-2 -1.1,0 -2.2,0 -3.3,0 -1.7,0 -2.4,0.7 -2.4,2.4 0,2.3 0,4.5 0,6.8 0,0.8 0,1.6 0,2.5 2.6,0 5.1,0 7.6,0 z" />
	</g>
</g>
</svg>
