<?xml version="1.0" encoding="utf-8"?>
<!-- Generator: Adobe Illustrator 24.0.1, SVG Export Plug-In . SVG Version: 6.00 Build 0)  -->
<svg version="1.1" id="Layer_1" xmlns="http://www.w3.org/2000/svg" xmlns:xlink="http://www.w3.org/1999/xlink" x="0px" y="0px"
	 viewBox="0 0 50 50" style="enable-background:new 0 0 50 50;" xml:space="preserve">
<g id="rFppYe_1_">
	<g>
		<path d="M6.8,24.8c0-5.4,0.1-10.8,0-16.2c0-2.2,1.8-4.7,4.6-4.7c6.2,0,12.4,0,18.5,0c2.5,0,4.3,1.7,4.6,4.2
			c0.1,1.2,0.1,2.4,0.1,3.6c0,0.6,0.2,0.9,0.7,1.1c3.5,1.4,6.2,3.7,7.4,7.4c1.3,4,0.1,7.4-2.8,10.4c-1.3,1.3-2.9,2.3-4.6,2.9
			c-0.5,0.2-0.7,0.4-0.7,1c0,2.1,0,4.2,0,6.4c0,1.9-0.7,3.5-2.4,4.4c-0.7,0.4-1.6,0.6-2.4,0.6c-6.1,0-12.2,0-18.3,0
			c-2.8,0-4.7-2.4-4.7-4.7C6.9,35.7,6.8,30.3,6.8,24.8z M31.4,11.7c0-1.2,0.1-2.4,0-3.5c-0.1-0.6-0.6-1.1-1.3-1.1
			c-0.7-0.1-1.3-0.1-1.6,0.7c-0.5,0.9-1.1,1.8-1.6,2.7c-0.4,0.7-1,1-1.8,1c-3,0-5.9,0-8.9,0c-0.9,0-1.5-0.3-1.9-1.1
			c-0.6-1-1.2-2-1.8-2.9C12.4,7.2,12.1,7,11.8,7c-1.3-0.1-1.9,0.5-1.9,1.9c0,10.6,0,21.2,0,31.8c0,1.7,0.5,2.1,2.2,2.1
			c4,0,8.1,0,12.1,0c1.8,0,3.7,0,5.5,0c1.2,0,1.8-0.6,1.8-1.8c0-2,0-3.9,0-5.9c0-0.6-0.2-0.7-0.8-0.7c-1.6-0.1-3.1-0.3-4.7-0.4
			c-0.4,0-0.8,0-1.2,0.1c-1.7,0.7-3.3,1.4-5,2.1c-0.4,0.2-0.8,0.3-1.2,0.3c-1.1-0.1-1.6-0.9-1.3-2.3c0.3-1.4,0.6-2.8,0.9-4.2
			c0.1-0.6,0.2-1.1-0.2-1.7c-2.5-3.8-1.6-8.3,0.7-11.4c2.4-3.2,5.7-4.6,9.5-5C29.3,11.8,30.3,11.7,31.4,11.7z M20.8,32.5
			c1.1-0.5,2-0.8,2.9-1.2c1-0.5,2-0.5,3.1-0.2c4.2,1,8.1,0.2,11.2-2.9c2.8-2.8,2.7-7.1,0-10c-3.8-3.9-10.5-4.4-15-1.1
			c-2.1,1.6-3.4,3.6-3.3,6.3c0,1.3,0.4,2.6,1.2,3.7c0.5,0.7,0.9,1.5,0.6,2.5C21.2,30.4,21,31.3,20.8,32.5z M16,7
			c0.7,1.3,0.7,1.3,2,1.3c1.9,0,3.7,0,5.6,0c1.2,0,1.3-0.1,1.6-1.3C22.1,7,19.1,7,16,7z"/>
		<path d="M20.7,38.2c1.6,0,3.1,0,4.7,0c1.1,0,1.7,0.6,1.7,1.5c0,0.9-0.6,1.5-1.7,1.5c-3.2,0-6.4,0-9.6,0c-0.9,0-1.6-0.6-1.7-1.5
			c0-0.9,0.7-1.5,1.7-1.6C17.5,38.2,19.1,38.2,20.7,38.2z"/>
		<path d="M30.1,27.3c-1.9,0-3.8,0-5.7,0c-1,0-1.6-0.4-1.8-1.1c-0.2-0.7,0.1-1.2,0.9-1.8c0.2-0.1,0.3-0.4,0.4-0.6
			c0.6-2.5,1.9-4.4,4.3-5.3c0.2-0.1,0.3-0.4,0.4-0.7c0.1-0.7,0.4-1.3,1.2-1.5c1-0.3,1.8,0.3,1.9,1.4c0,0.5,0.2,0.7,0.7,0.9
			c2.1,0.9,3.4,2.5,3.9,4.7c0.2,0.6,0.3,1.1,0.9,1.4c0.6,0.3,0.7,1,0.5,1.6c-0.2,0.6-0.8,1-1.5,1C34,27.3,32,27.3,30.1,27.3z
			 M26.9,24.1c2.1,0,4.2,0,6.3,0c-0.3-1.7-1.6-3-3.1-3C28.6,21.1,27.2,22.4,26.9,24.1z"/>
	</g>
</g>
</svg>
