<?xml version="1.0" encoding="utf-8"?>
<!-- Generator: Adobe Illustrator 24.0.1, SVG Export Plug-In . SVG Version: 6.00 Build 0)  -->
<svg version="1.1" id="Layer_1" xmlns="http://www.w3.org/2000/svg" xmlns:xlink="http://www.w3.org/1999/xlink" x="0px" y="0px"
	 viewBox="0 0 50 50" style="enable-background:new 0 0 50 50;" xml:space="preserve">
<path d="M32,15.5c-0.6,0-1.1-0.5-1.1-1.2v-2.1c0-1.7-1.2-3-2.7-3h-5.9c-1.5,0-2.7,1.4-2.7,3v2.1c0,0.7-0.5,1.2-1.1,1.2
	c-0.6,0-1.1-0.5-1.1-1.2v-2.1c0-3,2.2-5.4,4.8-5.4h5.9c2.7,0,4.8,2.4,4.8,5.4v2.1C33,15,32.6,15.5,32,15.5z"/>
<path d="M44,18.8c0,0-0.1,0-0.1,0v-2.9h1c0.7,0,1.3-0.6,1.3-1.4c0-0.8-0.6-1.4-1.3-1.4H5.7c-0.7,0-1.3,0.6-1.3,1.4
	c0,0.8,0.6,1.4,1.3,1.4h1v2.9c-2.8,0-5,2.5-5,5.6s2.2,5.6,5,5.6v8.6c0,2.4,1.7,4.3,3.8,4.3H40c2.1,0,3.8-1.9,3.8-4.3V30
	c0,0,0.1,0,0.1,0c2.8,0,5-2.5,5-5.6S46.8,18.8,44,18.8z M4.2,24.4c0-1.5,1.1-2.7,2.4-2.7v5.5C5.3,27.1,4.2,25.9,4.2,24.4z M40,40
	H10.5c-0.7,0-1.3-0.6-1.3-1.4V15.9h32.1v22.7C41.3,39.4,40.7,40,40,40z M44,27.1c0,0-0.1,0-0.1,0v-5.5c0,0,0.1,0,0.1,0
	c1.3,0,2.4,1.2,2.4,2.7C46.5,25.9,45.4,27.1,44,27.1z"/>
</svg>
