<?xml version="1.0" encoding="utf-8"?>
<!-- Generator: Adobe Illustrator 24.0.1, SVG Export Plug-In . SVG Version: 6.00 Build 0)  -->
<svg version="1.1" id="Layer_1" xmlns="http://www.w3.org/2000/svg" xmlns:xlink="http://www.w3.org/1999/xlink" x="0px" y="0px"
	 viewBox="0 0 50 50" style="enable-background:new 0 0 50 50;" xml:space="preserve">
<g>
	<path d="M41.4,9.4c0-1.1-0.4-1.6-1.6-1.6c-0.6,0-1.3,0-2,0l-0.7,0V5.7c0-1.9-0.3-2.1-2.1-2.1c-2.1,0-4.1,0-6.2,0
		c-5.1,0-10.4,0-15.6,0c-1.2,0-2.3,0.4-3,1.1C9.6,5.3,9.2,6.4,9.3,7.7c0,8.4,0,16.9,0,25.2c0,3.1,0,6.1,0,9.2l0,0.2
		c0,0.3,0,0.6,0,0.9c0.2,1.8,1.6,3.1,3.4,3.1c4.6,0,9.3,0,13.9,0c4.4,0,8.8,0,13.2,0c1.2,0,1.6-0.4,1.6-1.6
		C41.4,32.9,41.4,21.1,41.4,9.4z M13.3,43.7c-1.2,0-1.4-0.2-1.4-1.4c0-10.5,0-20.9,0-31.4c0-0.2,0-0.4,0-0.5h26.9v33.3L13.3,43.7z
		 M34.6,7.8l-21.2,0c-1.3,0-1.5-0.4-1.5-0.8c0-0.2,0.1-0.4,0.2-0.5c0.2-0.2,0.6-0.3,1.3-0.3H27h7.6V7.8z"/>
	<path d="M28.1,14.2c-0.7,0-1.2,0-1.6,0.3c-0.3,0.3-0.4,0.9-0.4,1.6v21.9l0,0.1c0,0.2,0,0.3,0,0.5c0.1,0.8,0.6,1.3,1.3,1.3
		c0,0,0,0,0,0c0.8,0,1.3-0.5,1.3-1.4c0-0.5,0-1.1,0-1.6l0-7.5l1.3,0c1.2,0,2.3,0,3.4,0c1.1,0,1.6-0.5,1.6-1.5l0-1.2
		c0-1.9,0-3.8-0.1-5.7C34.8,17.3,31.8,14.4,28.1,14.2z M32.5,25.1c0,0.5,0,1,0,1.6h-3.6V17c1.8,0.3,3.5,2.3,3.6,4.2
		C32.5,22.4,32.5,23.8,32.5,25.1z"/>
	<path d="M20.1,14.1c-1.1,0-2.2,0.7-2.9,1.9c-1.4,2.2-1.9,4.7-1.4,7.4c0.3,1.8,1.2,3,2.8,3.6c0.1,0,0.2,0.3,0.2,0.5
		c0,1.4,0,2.8,0,4.2l0,2.9c0,1.3,0,2.5,0,3.8c0,0.5,0.2,0.9,0.4,1.2c0.2,0.2,0.5,0.3,0.9,0.3c0,0,0,0,0,0c0.8,0,1.2-0.6,1.3-1.6
		c0-0.2,0-0.3,0-0.5l0-10.3l0-0.1c0-0.4,0-0.5,0.3-0.6c1.3-0.5,2.2-1.5,2.5-3c0.7-2.7,0.3-5.3-1.3-7.9
		C22.3,14.8,21.2,14.1,20.1,14.1z M21.8,23.1c-0.2,1-0.8,1.6-1.7,1.6c0,0,0,0,0,0c-0.9,0-1.5-0.5-1.7-1.6c-0.1-0.4-0.1-0.7-0.1-1
		c0-0.1,0-0.2,0-0.3c0.1-1.9,0.4-3.3,1.3-4.5c0.2-0.3,0.4-0.5,0.6-0.5c0,0,0,0,0,0c0.2,0,0.4,0.2,0.6,0.5C21.8,19,22.2,21,21.8,23.1
		z"/>
</g>
</svg>
