<?xml version="1.0" encoding="utf-8"?>
<!-- Generator: Adobe Illustrator 24.0.1, SVG Export Plug-In . SVG Version: 6.00 Build 0)  -->
<svg version="1.1" id="Layer_1" xmlns="http://www.w3.org/2000/svg" xmlns:xlink="http://www.w3.org/1999/xlink" x="0px" y="0px"
	 viewBox="0 0 50 50" style="enable-background:new 0 0 50 50;" xml:space="preserve">
<path d="M27,4.1C17.9,4.1,9.9,10,7.2,18.6l-2.3-1.5c-0.4-0.3-0.9-0.3-1.3-0.1c-0.4,0.2-0.7,0.7-0.7,1.1v13.3c0,0.5,0.3,0.9,0.7,1.1
	c0.2,0.1,0.4,0.2,0.6,0.2c0.2,0,0.5-0.1,0.7-0.2l2.3-1.5C9.9,39.7,17.9,45.6,27,45.6c11.5,0,20.8-9.3,20.8-20.8S38.5,4.1,27,4.1z
	 M28.3,6.7c4,0.3,7.7,1.9,10.6,4.4L28.3,21.7V6.7z M25.7,21.7L15.1,11.1C18,8.6,21.7,7,25.7,6.7V21.7z M25.7,43
	c-4-0.3-7.7-1.9-10.6-4.4L25.7,28V43z M28.3,28l10.6,10.6c-2.9,2.5-6.6,4.1-10.6,4.4V28z M30.1,26.2h15c-0.3,4-1.9,7.7-4.4,10.6
	L30.1,26.2z M30.1,23.6L40.7,13c2.5,2.9,4.1,6.6,4.4,10.6H30.1z M13.3,13l10.6,10.6h-9.2l-5.2-3.5C10.2,17.4,11.5,15,13.3,13z
	 M5.5,20.6l6.4,4.3l-6.4,4.3V20.6z M14.7,26.2h9.2L13.3,36.8c-1.8-2-3.1-4.5-3.8-7.2L14.7,26.2z"/>
</svg>
